<?xml version="1.0" encoding="utf-8"?>
<!-- Generator: Adobe Illustrator 18.0.0, SVG Export Plug-In . SVG Version: 6.00 Build 0)  -->
<!DOCTYPE svg PUBLIC "-//W3C//DTD SVG 1.1//EN" "http://www.w3.org/Graphics/SVG/1.1/DTD/svg11.dtd">
<svg version="1.1" xmlns="http://www.w3.org/2000/svg" xmlns:xlink="http://www.w3.org/1999/xlink" x="0px" y="0px"
	 viewBox="0 0 1400 980" enable-background="new 0 0 1400 980" xml:space="preserve">
<g id="Background">
	<linearGradient id="SVGID_1_" gradientUnits="userSpaceOnUse" x1="700" y1="822.79" x2="700" y2="-110.124">
		<stop  offset="0" style="stop-color:#4D96A1"/>
		<stop  offset="0.1696" style="stop-color:#4B8594"/>
		<stop  offset="0.5174" style="stop-color:#436178"/>
		<stop  offset="1" style="stop-color:#352D52"/>
	</linearGradient>
	<polygon fill="url(#SVGID_1_)" points="0,0 0,409 0,571 0,980 1400,980 1400,571 1400,409 1400,0 	"/>
	<linearGradient id="SVGID_2_" gradientUnits="userSpaceOnUse" x1="700" y1="480.8182" x2="700" y2="-64.3538">
		<stop  offset="0" style="stop-color:#4D96A1"/>
		<stop  offset="0.1696" style="stop-color:#4B8594"/>
		<stop  offset="0.5174" style="stop-color:#436178"/>
		<stop  offset="1" style="stop-color:#352D52"/>
	</linearGradient>
	<rect fill="url(#SVGID_2_)" width="1400" height="572.7"/>
</g>
<g id="Obects">
	<g>
		<g>
			<defs>
				<polygon id="SVGID_25_" points="0,0 0,409 0,571 0,980 1400,980 1400,571 1400,409 1400,0 				"/>
			</defs>
			<clipPath id="SVGID_3_">
				<use xlink:href="#SVGID_25_"  overflow="visible"/>
			</clipPath>
			<g clip-path="url(#SVGID_3_)">
				<g>
					<circle opacity="0.1" fill="#FEFCF0" cx="468.5" cy="422.7" r="207.8"/>
					<circle opacity="0.2" fill="#FEFCF0" cx="468.5" cy="422.7" r="136.1"/>
					<circle fill="#FEFCF0" cx="468.5" cy="422.7" r="90.8"/>
					
						<ellipse transform="matrix(0.9759 0.2181 -0.2181 0.9759 90.738 -93.4171)" fill="#DBE3CC" cx="468.5" cy="364.3" rx="23.7" ry="16.3"/>
					<ellipse fill="#DBE3CC" cx="425" cy="402" rx="10" ry="9"/>
					
						<ellipse transform="matrix(0.9067 0.4218 -0.4218 0.9067 231.8967 -175.0599)" fill="#DBE3CC" cx="511.7" cy="436.7" rx="15.3" ry="17"/>
					
						<ellipse transform="matrix(0.729 -0.6845 0.6845 0.729 -137.2617 468.0159)" fill="#DBE3CC" cx="522.5" cy="407.4" rx="4.7" ry="5"/>
				</g>
				<linearGradient id="SVGID_4_" gradientUnits="userSpaceOnUse" x1="734.712" y1="435.8137" x2="734.712" y2="570.8605">
					<stop  offset="0" style="stop-color:#467388"/>
					<stop  offset="1" style="stop-color:#447483"/>
				</linearGradient>
				<path fill="url(#SVGID_4_)" d="M1501.8,561.7c-7-22-14.3-44-21.9-65.8c-2.7-7.8-5.9-16.2-13.1-20.3c-10.8-6.3-24.3,0.2-36.8,1.2
					c-34.8,2.8-59.5-37.4-94.2-41.3c-11.1-1.3-22.4,1.3-33.3-0.8c-25.1-4.9-38.6-31.3-55.7-50.2c-20.2-22.3-49.4-36.2-79.5-37.7
					c-27,22.4-54.6,45.1-87.3,57.8c-7.4,2.9-15.2,5.3-21.5,10.3c-5.6,4.4-9.6,10.6-14.5,15.8c-15.9,17-40.4,22.8-63.7,24.3
					c-43.3,2.8-86.4-6.3-128.8-15.4c-27.5-5.9-48.8-10.7-67.5-31.4c-8.4-9.3-12.5-10.9-25.2-13.5c-15.3-3.1-23.2-7.8-36.3-16.3
					c-6.3-4.1-14.4-6.8-21.1-3.5c-5.3,2.6-8.4,8.1-12,12.9c-6.9,9.2-16.7,16.1-27.6,19.5c-4.4,1.4-9,2.2-13.1,4.4
					c-11.3,6.1-15.8,15.3-30.2,19.6c-20.1,6.1-41.4,6.6-61.8,11.6c-22.8,5.5-44.1,16.7-62.1,31.7c-6.2,5.2-12.7,11.1-20.8,11.5
					c-23.5,1.1-44.9-23.1-64.6-32.2c-6.6-3.1-14.2-4.8-19.6-9.6c-3.2-2.8-5.4-6.5-7.7-10c-16.8-25.7-40.7-46.8-68.3-60.3
					c-19.5-9.6-38.7-19.9-52.5-37.1c-2.5-3.1-5.2-6.3-8.9-7.5c-11.7-3.7-18.8,13.5-30.1,18.5c-8,3.5-17.2,0.4-25.9,0.5
					c-22.8,0.5-42.3,23.7-64.6,18.7c-2.6-0.6-5-1.5-7.6-2c-3.9-0.7-7.8-0.3-11.8-0.1c-19.6,0.7-33.2-7-50.4-14.4
					c-20.7-9-70.2-21.7-75.4,8.4c-2.5,14.4,0,29.1-3.1,43.9c-2.6,12.1-5.7,24-8.6,36c-11.1,41.5-13.5,85.3-6.9,127.7
					c2.1,13.9,6.1,29.1,17.6,37.2c7.2,5.1,16.3,6.6,25,7.8c72.9,10.2,146.8,11,220.5,11.8c254,2.7,508,5.4,762,8.1
					c164,1.7,330,3.3,489.7-34.1c7.2-1.7,15.1-3.9,19.2-10.1C1506.9,579.7,1504.5,570,1501.8,561.7z"/>
				<g>
					<linearGradient id="SVGID_5_" gradientUnits="userSpaceOnUse" x1="517.6607" y1="339.7439" x2="899.6607" y2="973.7438">
						<stop  offset="0" style="stop-color:#5BA8B8"/>
						<stop  offset="0.4201" style="stop-color:#3B748A"/>
						<stop  offset="0.8099" style="stop-color:#23526D"/>
						<stop  offset="1" style="stop-color:#194663"/>
					</linearGradient>
					<path fill="url(#SVGID_5_)" d="M2.3,512L133,422.7l341.9,126.5l126.3-63.3l219.9,63.3l285.3-96c0,0,211.2,104.5,313.6,124.1
						v145.4L363,767.3l-373.8-44.6L2.3,512z"/>
					<linearGradient id="SVGID_6_" gradientUnits="userSpaceOnUse" x1="601.1567" y1="591.2615" x2="1049" y2="591.2615">
						<stop  offset="0" style="stop-color:#1F586E"/>
						<stop  offset="0.2458" style="stop-color:#1D4E62"/>
						<stop  offset="0.7465" style="stop-color:#143545"/>
						<stop  offset="1" style="stop-color:#0C2736"/>
					</linearGradient>
					<path fill="url(#SVGID_6_)" d="M601.2,485.9c0,0,219.3,172.5,338.9,188.9l6.5,21.8c0,0,57.3-5.7,75.3-5.4
						c18,0.3,27.2-8.7,27.2-8.7L821.1,549.2L601.2,485.9z"/>
					<linearGradient id="SVGID_7_" gradientUnits="userSpaceOnUse" x1="1106.3618" y1="576.2526" x2="1419.9373" y2="576.2526">
						<stop  offset="0" style="stop-color:#1F586E"/>
						<stop  offset="0.2458" style="stop-color:#1D4E62"/>
						<stop  offset="0.7465" style="stop-color:#143545"/>
						<stop  offset="1" style="stop-color:#0C2736"/>
					</linearGradient>
					<path fill="url(#SVGID_7_)" d="M1311.5,686.2l88.5,13.2l19.9-40.5v-81.5c-102.3-19.6-313.6-124.1-313.6-124.1
						S1155.9,641.4,1311.5,686.2z"/>
					<linearGradient id="SVGID_8_" gradientUnits="userSpaceOnUse" x1="132.9462" y1="582.7186" x2="776.3178" y2="582.7186">
						<stop  offset="0" style="stop-color:#1F586E"/>
						<stop  offset="0.2458" style="stop-color:#1D4E62"/>
						<stop  offset="0.7465" style="stop-color:#143545"/>
						<stop  offset="1" style="stop-color:#0C2736"/>
					</linearGradient>
					<path fill="url(#SVGID_8_)" d="M133,422.7c0,0-5.9,146.3,163.8,248.7c272.9,164.6,479.6-7.1,479.6-7.1L474.9,549.2L133,422.7z"
						/>
				</g>
				<path fill="#001826" d="M823.2,670.4c-3.8,2.7-8.9,2.4-12.8,5c-0.4-0.6-0.7-1.2-1.1-1.7c-1.7,0.5-3.4,1-5.1,1.6
					c-1.6-2.7-3.4-5.3-5.4-7.8l-2.7-3.6l-6.3-8.2c4.8,1,6.4,0.3,6.4,0.3l-13.6-24l-11.9,24.9c0,0,1.6,0.5,6.4-0.8l-9.4,14.3
					L756.2,657c3.1,2,10.2,1.6,10.2,1.6l-12.4-16.2c4.8,1,6.4,0.3,6.4,0.3l-13.6-24l-11.9,24.9c0,0,1.6,0.5,6.4-0.8l-11.2,17.1
					c0,0,7.1-0.1,10-2.3l-11.5,15.7l-13.1-23l-9.5,20l-6.7-11.7l-10.9,23l-12.8-22.6l-11.6,24.4c0,0,1.6,0.5,6.2-0.8l-9.2,14
					l-10.2-13.3c4.7,0.9,6.3,0.3,6.3,0.3L643.6,660L632,684.3c0,0,1.6,0.5,6.2-0.8l-6.8,10.3l-7.5-9.8c4.7,0.9,6.3,0.3,6.3,0.3
					l-13.3-23.5l-11.6,24.4c0,0,1.6,0.5,6.2-0.8l-9.1,13.8l-5.7-7.4c4.7,0.9,6.3,0.3,6.3,0.3l-13.3-23.5l-11.6,24.4
					c0,0,1.6,0.5,6.2-0.8l-3.9,5.9l-8.7-11.3c4.7,0.9,6.3,0.3,6.3,0.3l-13.3-23.5l-11.6,24.4c0,0,1.6,0.5,6.2-0.8l-6.9,10.5l-7.7-10
					c4.7,0.9,6.3,0.3,6.3,0.3l-13.3-23.5l-11.6,24.4c0,0,1.6,0.5,6.2-0.8l-7.6,11.6l-8.4-11c4.7,0.9,6.3,0.3,6.3,0.3l-13.3-23.5
					l-10.5,22l-8.8-15.5L478,695.7c0,0,1.6,0.5,6.2-0.8l-11,16.7c0,0,6.9-0.1,9.8-2.3l-11.4,15.5l-8.5-10c3.1,1.9,9.9,1.6,9.9,1.6
					L461,700.6c4.7,0.9,6.3,0.3,6.3,0.3l-13.3-23.5l-11.6,24.4c0,0,1.6,0.5,6.2-0.8l-11,16.7c0,0,6.9-0.1,9.8-2.3l-10,13.6
					l-11.8-15.4c4.7,0.9,6.3,0.3,6.3,0.3l-13.3-23.5l-11.6,24.4c0,0,1.6,0.5,6.2-0.8l-11,16.7c0,0,6.9-0.1,9.8-2.3l-9.3,12.7
					l-7.6,0.3l-2.8-3.3c3.1,1.9,9.9,1.6,9.9,1.6L390,723.9c4.7,0.9,6.3,0.3,6.3,0.3l-13.3-23.5l-11.6,24.4c0,0,1.6,0.5,6.2-0.8
					l-11,16.7c0,0,6.9-0.1,9.8-2.3l-5.5,7.5c-0.5,0-1,0-1.5,0L356,730.5c3.1,1.9,9.9,1.6,9.9,1.6l-12.1-15.9
					c4.7,0.9,6.3,0.3,6.3,0.3L346.7,693l-11.6,24.4c0,0,1.6,0.5,6.2-0.8l-3.8,5.8l-10.2-13.3c4.7,0.9,6.3,0.3,6.3,0.3l-13.3-23.5
					l-11.6,24.4c0,0,1.6,0.5,6.2-0.8l-11,16.7c0,0,6.9-0.1,9.8-2.3l-9.6,13l-10.5-12.3c3.1,1.9,9.9,1.6,9.9,1.6l-12.1-15.9
					c4.7,0.9,6.3,0.3,6.3,0.3l-13.3-23.5l-11.1,23.3l-6-7.9c4.7,0.9,6.3,0.3,6.3,0.3l-13.3-23.5l-11.6,24.4c0,0,1.6,0.5,6.2-0.8
					l-6.2,9.4l-11.2-14.7c4.7,0.9,6.3,0.3,6.3,0.3l-13.3-23.5L218.6,699c0,0,1.6,0.5,6.2-0.8l-11,16.7c0,0,6.9-0.1,9.8-2.3
					l-9.7,13.3l-10.3-12.1c3.1,1.9,9.9,1.6,9.9,1.6l-12.1-15.9c4.7,0.9,6.3,0.3,6.3,0.3l-13.3-23.5l-11.6,24.4c0,0,1.6,0.5,6.2-0.8
					l-9.7,14.8l-6.7-8.8c4.7,0.9,6.3,0.3,6.3,0.3l-13.3-23.5l-11.6,24.4c0,0,1.6,0.5,6.2-0.8l-9,13.7l-6.3-8.3
					c4.7,0.9,6.3,0.3,6.3,0.3l-13.3-23.5L126,713c0,0,1.6,0.5,6.2-0.8l-9.6,14.6l-8.8-10.3c3.1,1.9,9.9,1.6,9.9,1.6l-12.1-15.9
					c4.7,0.9,6.3,0.3,6.3,0.3l-13.3-23.5l-11.6,24.4c0,0,1.6,0.5,6.2-0.8l-11,16.7c0,0,6.9-0.1,9.8-2.3l-6.9,9.3l-13.4-15.8
					c3.1,1.9,9.9,1.6,9.9,1.6l-12.1-15.9c4.7,0.9,6.3,0.3,6.3,0.3l-13.3-23.5l-11.6,24.4c0,0,1.6,0.5,6.2-0.8L54.9,709L46,697.4
					c4.7,0.9,6.3,0.3,6.3,0.3L39,674.2l-11.6,24.4c0,0,1.6,0.5,6.2-0.8l-9.1,13.9l-12.6-14.9c3.1,1.9,9.9,1.6,9.9,1.6L9.6,682.6
					c4.7,0.9,6.3,0.3,6.3,0.3L2.5,659.4l-11.6,24.4c0,0,1.6,0.5,6.2-0.8l-11,16.7c0,0,6.9-0.1,9.8-2.3l-11.1,15.1l-10.4-9.9
					c3.6,1.5,10.8,0.6,10.8,0.6l-14.1-16.6c3.1,1.9,9.9,1.6,9.9,1.6l-12.1-15.9c4.7,0.9,6.3,0.3,6.3,0.3l-13.3-23.5l-11.6,24.4
					c0,0,1.6,0.5,6.2-0.8l-6.5,9.9l-7.2-9.4c4.7,0.9,6.3,0.3,6.3,0.3L-64.3,650L-76,674.4c0,0,1.6,0.5,6.2-0.8l-11,16.7
					c0,0,6.9-0.1,9.8-2.3l-12.9,17.6c0,0,7.2,0.4,10.7-1.3L-86.5,719c0,0,7.6,1,12.3-1l-16.2,15.2c0,0,6.4,1.4,11.5-0.2l-18.2,6.3
					c0,0,13.2,1.7,26.3,2.1l2.4,66.3l28.8-1c0.2,6.7,0.4,11.4,0.4,11.4l1399.1-49.6c0,0,0-3.9,0.1-10.3l241.7-8.6l-1.8-50.1l2.8-0.1
					l-1.3-36.3c12.3-1.4,23.9-3.8,23.9-3.8l-19-5.2c5.3,1.3,11.8-0.6,11.8-0.6l-17.6-14.4c4.9,1.6,12.6,0.1,12.6,0.1l-14.7-14.1
					c3.7,1.5,11,0.6,11,0.6l-14.5-17c3.1,2,10.2,1.6,10.2,1.6l-12.4-16.2c4.8,1,6.4,0.3,6.4,0.3l-13.6-24l-11.9,24.9
					c0,0,1.6,0.5,6.4-0.8l-10.2,15.4l-7-8.2c3.1,2,10.2,1.6,10.2,1.6l-12.4-16.2c4.8,1,6.4,0.3,6.4,0.3l-13.6-24l-11.9,24.9
					c0,0,1.6,0.5,6.4-0.8l-9.8,14.9l-7.8-10.2c4.8,1,6.4,0.3,6.4,0.3l-13.6-24l-11.9,24.9c0,0,1.6,0.5,6.4-0.8l-8.4,12.8l-11.4-13.4
					c3.1,2,10.2,1.6,10.2,1.6l-12.4-16.2c4.8,0.9,6.4,0.3,6.4,0.3l-13.6-24l-11.9,24.9c0,0,1.6,0.5,6.4-0.8l-8.8,13.4l-9.8-12.7
					c4.8,0.9,6.4,0.3,6.4,0.3l-13.6-24l-11.1,23.3l-11.4-20l-11.9,24.9c0,0,1.6,0.5,6.4-0.8l-11.2,17.1c0,0,7.1-0.1,10-2.3
					l-9.9,13.5l-10.7-14c4.8,0.9,6.4,0.3,6.4,0.3l-13.6-24l-11.9,24.9c0,0,1.6,0.5,6.4-0.8l-11.2,17l-3.8-5c4.8,0.9,6.4,0.3,6.4,0.3
					l-13.6-24l-11.9,24.9c0,0,1.6,0.5,6.4-0.8l-11.2,17.1c0,0,7.1-0.1,10-2.3l-10.4,14.2l-7.9-9.2c3.1,2,10.2,1.6,10.2,1.6
					l-12.4-16.2c4.8,0.9,6.4,0.3,6.4,0.3l-13.6-24l-11.9,24.9c0,0,1.6,0.5,6.4-0.8l-7.6,11.6l-4.7-6.2c4.8,1,6.4,0.3,6.4,0.3
					l-13.6-24l-11.9,24.9c0,0,1.6,0.5,6.4-0.8l-6.6,10.1l-11-14.4c4.8,0.9,6.4,0.3,6.4,0.3l-13.6-24l-11.9,24.9c0,0,1.6,0.5,6.4-0.8
					l-9.4,14.3c-3-0.4-6.1-0.8-9.1-1.1l-3.4-4c3.1,2,10.2,1.6,10.2,1.6l-12.4-16.2c4.8,1,6.4,0.3,6.4,0.3l-13.6-24l-11.9,24.9
					c0,0,1.6,0.5,6.4-0.8l-10.2,15.6c-2.6-0.2-5.2-0.4-7.8-0.5l-3.8-4.4c3.1,2,10.2,1.6,10.2,1.6l-12.4-16.2c4.8,1,6.4,0.3,6.4,0.3
					l-13.6-24l-11.9,24.9c0,0,1.6,0.5,6.4-0.8l-11.1,16.8l-8.5-10c3.1,2,10.2,1.6,10.2,1.6l-12.4-16.2c4.8,1,6.4,0.3,6.4,0.3
					l-13.6-24l-11.9,24.9c0,0,1.6,0.5,6.4-0.8l-10.8,16.4l-8.9-10.4c3.1,2,10.2,1.6,10.2,1.6l-12.4-16.2c4.8,1,6.4,0.3,6.4,0.3
					l-13.6-24l-11.9,24.9c0,0,1.6,0.5,6.4-0.8l-11.2,17.1c0,0,7.1-0.1,10-2.3l-12.6,17.2c-0.5,0-1,0-1.5,0l-6-7
					c3.1,2,10.2,1.6,10.2,1.6l-12.4-16.2c4.8,1,6.4,0.3,6.4,0.3l-13.6-24l-11.9,24.9c0,0,1.6,0.5,6.4-0.8l-11.2,17.1
					c0,0,7.1-0.1,10-2.3l-5.3,7.3c-3.3,0.1-6.5,0.3-9.8,0.4l-3-3.6c3.1,2,10.2,1.6,10.2,1.6l-12.4-16.2c4.8,1,6.4,0.3,6.4,0.3
					l-13.6-24l-11.9,24.9c0,0,1.6,0.5,6.4-0.8l-10.8,16.3l-8.1-10.6c4.8,1,6.4,0.3,6.4,0.3l-13.6-24l-11.9,24.9c0,0,1.6,0.5,6.4-0.8
					l-10.5,16c-1.7,0.2-3.3,0.3-5,0.5l-8.2-10.8c4.8,1,6.4,0.3,6.4,0.3l-13.6-24l-11.9,24.9c0,0,1.6,0.5,6.4-0.8l-9.1,13.8
					c-2.8,0.4-5.6,0.7-8.4,1.1l-5-6.5c4.8,1,6.4,0.3,6.4,0.3l-13.6-24l-11.9,24.9c0,0,1.6,0.5,6.4-0.8l-6.3,9.6
					c-1.8,0.3-3.6,0.6-5.3,0.8l-3.5-4.5c4.8,1,6.4,0.3,6.4,0.3l-13.6-24l-11.9,24.9c0,0,1.6,0.5,6.4-0.8l-5.1,7.7
					c-4.1,0.7-8.2,1.5-12.4,2.3l-3.7-4.8c4.8,1,6.4,0.3,6.4,0.3l-13.6-24l-11.9,24.9c0,0,1.6,0.5,6.4-0.8l-5.8,8.8
					c-2.9,0.6-5.7,1.2-8.6,1.8l-2.7-3.6c4.8,1,6.4,0.3,6.4,0.3l-13.6-24l-11.9,24.9c0,0,1.6,0.5,6.4-0.8l-5.1,7.8
					c-0.6,0.2-1.3,0.3-1.9,0.5l-10.8-14.1c4.8,1,6.4,0.3,6.4,0.3l-13.6-24l-11.9,24.9c0,0,1.6,0.5,6.4-0.8c-2.4,3.7-4.9,7.3-7.3,11
					c-1,1.6-1.4,3.3-1.7,5.1c0.6,0.1,1.7,0.1,2.3-0.1c1.4,0.5,3.8-0.8,5.2-0.9C832.1,663.9,827.7,667.2,823.2,670.4z M-54.1,688.6
					l-1-1.2c0.4,0.2,0.8,0.5,1.3,0.6L-54.1,688.6z M-48.8,717.8l-0.4-0.3c0.1,0,0.3-0.1,0.4-0.1c0.1,0,0.3,0.1,0.4,0.1L-48.8,717.8z
					 M-49.3,705.8l-1.5-1.5c0.5-0.1,1-0.2,1.5-0.3c0.5,0.1,1,0.1,1.5,0.2L-49.3,705.8z M-49.7,693.8l-3.8-4.5
					c0.9-0.1,2.2-0.2,3.6-0.4c1.4,0.1,2.8,0.2,3.7,0.2L-49.7,693.8z M-45.7,688.3l-0.4-0.5c0.5-0.2,0.9-0.5,1.3-0.7L-45.7,688.3z
					 M-8.5,728.4l-0.6-0.5c0.6-0.2,1.2-0.3,1.7-0.6L-8.5,728.4z M-14.9,723.2l-8.6-7c4.8,1.6,12.3,0.1,12.3,0.1l-1.4-1.3
					c2.2-0.1,4.6-0.5,6.3-1.3L-14.9,723.2z M17.2,726.5c1.3,0.4,2.7,0.6,4.2,0.7l-1.2,1.7L17.2,726.5z M27.8,731.1
					c-1.7,0-3.5-0.1-5.2-0.1l-1.4-1.1c2.4,0,6.5-0.2,8.8-1.4L27.8,731.1z M25,722.3l-9.8-9.4c2.2,0.9,5.5,0.9,7.9,0.8l-0.5,0.8
					c0,0,6.9-0.1,9.8-2.3L25,722.3z M55.7,731.7l-3-2.9c0.9,0,1.9-0.1,2.9-0.3c1,0.1,2,0.1,2.9,0.1L55.7,731.7z M55.3,720l-7.1-8.3
					c1.1,0.7,2.6,1.1,4.1,1.3l-0.3,0.5c0,0,1.3,0,3.1-0.2c1.8,0.1,3.1,0,3.1,0l-0.4-0.5c1.5-0.3,3-0.8,4-1.6L55.3,720z M86.8,732.2
					l-5.8-5.5c2.6,1.1,7.1,0.9,9.3,0.7L86.8,732.2z M95.5,733.5c-0.1,0-0.1,0-0.2,0c0.1-0.1,0.3-0.1,0.4-0.2L95.5,733.5z
					 M124.4,735.7c-1.4-0.1-2.9-0.3-4.4-0.4l-2.9-2.8c2.5,1,6.7,0.9,9,0.7L124.4,735.7z M127,732.1l-2.9-3.4
					c2.2-0.3,5.2-0.8,6.9-2.1L127,732.1z M151.3,731.2l-4.3-5.1c1.7,1.1,4.7,1.5,7,1.6L151.3,731.2z M156.4,737.3L156.4,737.3
					c0-0.1,0.1-0.2,0.2-0.2L156.4,737.3z M155.3,725.7l-2.2-2.9c2-0.3,4.4-0.9,5.8-1.9L155.3,725.7z M179.3,737.5l-1.2-1.2
					c0.5,0.2,1.2,0.4,1.8,0.5L179.3,737.5z M179.4,725.8l-4.7-5.5c1.9,1.2,5.3,1.5,7.6,1.6L179.4,725.8z M184.5,731.8l-0.5-0.6
					c0.6-0.2,1.1-0.4,1.5-0.6L184.5,731.8z M183.5,720.3l-2.9-3.8c2.3-0.2,5.4-0.8,7.2-2.1L183.5,720.3z M218.7,744.2
					c-0.3,0-0.7,0-1-0.1c0.4,0,0.8-0.1,1.2-0.1L218.7,744.2z M220.3,742.6L220.3,742.6C220.3,742.6,220.3,742.6,220.3,742.6
					L220.3,742.6z M214.2,736.8l-7.2-6.9c3.6,1.5,10.8,0.6,10.8,0.6l-0.4-0.5c1.5-0.2,3-0.5,4.1-1.1L214.2,736.8z M247.7,713.7
					l-3,4.5l-5.2-6.1C241.6,713.4,245.5,713.7,247.7,713.7z M244.5,729.7l-1.7-1.6c0.7,0.3,1.5,0.5,2.4,0.6L244.5,729.7z M250.1,735
					l-0.7-0.7c0.7-0.2,1.3-0.4,1.9-0.7L250.1,735z M249.2,723.4l-3.3-3.8c2.3-0.2,5.8-0.8,7.6-2.1L249.2,723.4z M272.5,720.6
					l-3.1-3.7c1.2,0.8,2.9,1.2,4.6,1.4L272.5,720.6z M277.2,726.1l-0.2-0.3c0.3-0.2,0.6-0.3,0.8-0.5L277.2,726.1z M276.4,714.7
					l-2.3-3c1,0,2.5-0.2,4.8-0.9L276.4,714.7z M305.7,746.5c-0.9,0-1.8,0-2.7,0l-6-5.8c1.1,0.4,2.4,0.7,3.8,0.8l0,0
					c0,0,1.5,0.1,3.4,0c0,0,0.1,0,0.1,0c0,0,0.1,0,0.1,0c1.9-0.1,3.4-0.3,3.4-0.3l0,0c1.4-0.2,2.7-0.5,3.7-1L305.7,746.5z
					 M333.5,740.1l-0.6-0.6c0.3,0.1,0.6,0.2,0.9,0.3L333.5,740.1z M333.6,728.3l-4.1-4.9c1.6,1,4.2,1.4,6.3,1.5L333.6,728.3z
					 M338.2,733.7l-1.1-1.3c1.2-0.3,2.2-0.8,3-1.3L338.2,733.7z M437.8,739.8l-10.1-11.8c2.5,1.6,7.5,1.6,9.3,1.6l-2.6,3.5
					c0,0,7.2,0.4,10.7-1.3L437.8,739.8z M471.6,735.7l-5-4.8c2.4,1,6.3,0.9,8.7,0.8L471.6,735.7z M476.4,730.4l-3-3.5
					c2.4-0.1,5.4-0.4,7.4-1.4L476.4,730.4z M498.2,696.4l-1.5-1.9c1,0.2,1.8,0.3,2.5,0.4L498.2,696.4z M501.3,691.8l-1.5-2.7
					c0.9-0.1,2.2-0.3,3.8-0.8L501.3,691.8z M525.6,733.5l-1.2-0.9c0.4-0.1,0.8-0.1,1.1-0.2c0.4,0.1,0.8,0.1,1.1,0.1L525.6,733.5z
					 M525.2,721.7l-2.6-2.5c0.8-0.1,1.7-0.1,2.5-0.3c0.8,0.1,1.7,0.1,2.5,0.1L525.2,721.7z M524.8,710l-6.6-7.8
					c0.9,0.6,2,0.9,3.3,1.2L521,704c0,0,1.6,0,3.5-0.3c2,0.1,3.6,0,3.6,0l-0.5-0.6c1.2-0.3,2.4-0.8,3.2-1.4L524.8,710z M546.7,701.2
					c0.6,0.4,1.3,0.6,2.1,0.9l-0.6,0.9L546.7,701.2z M553.4,731.9l-0.7-0.5c0.2-0.1,0.4-0.1,0.6-0.2c0.2,0,0.4,0.1,0.6,0.1
					L553.4,731.9z M553,720l-1.9-1.8c0.6-0.1,1.2-0.2,1.8-0.3c0.6,0.1,1.2,0.1,1.8,0.2L553,720z M552.6,708.1l-4.3-5
					c0.5,0,2.2-0.1,4.1-0.4c1.9,0.2,3.6,0.1,4.1,0.1L552.6,708.1z M556.6,702.6l-0.6-0.8c0.8-0.3,1.4-0.6,2-1L556.6,702.6z
					 M576.3,703.2l-2.5-3c1,0.6,2.3,1,3.7,1.2L576.3,703.2z M580.9,708.6l-1.2-1.4c1.2-0.3,2.4-0.8,3.3-1.4L580.9,708.6z
					 M602.3,721.4l-0.2-0.2C602.2,721.3,602.3,721.3,602.3,721.4L602.3,721.4z M602.4,709.5l-3.6-4.3c1.4,0.9,3.7,1.3,5.7,1.5
					L602.4,709.5z M607.6,715.6l-0.2-0.2c0.2-0.1,0.4-0.2,0.5-0.2L607.6,715.6z M606.6,703.9l-2.3-3.1c2.1-0.3,4.5-0.9,6-1.9
					L606.6,703.9z M626.1,698.4c0.5,0.3,1.2,0.6,1.8,0.8l-0.5,0.8L626.1,698.4z M632.2,717.1l-1.8-1.7c0.6-0.1,1.2-0.2,1.7-0.3
					c0.6,0.1,1.1,0.1,1.7,0.2L632.2,717.1z M631.8,705.1l-4.1-4.9c0.7,0,2.3-0.1,3.9-0.4c1.7,0.2,3.2,0.1,4,0.1L631.8,705.1z
					 M635.8,699.7l-0.6-0.7c0.7-0.3,1.3-0.6,1.8-0.9L635.8,699.7z M656.5,713.7l-0.2-0.2c0.1,0,0.2,0.1,0.3,0.1L656.5,713.7z
					 M665.3,714.6c-2,0.6-4.1,1.2-6.1,1.7l-1.9-1.8c1,0,2.6,0,4.2-0.2c1.6,0,3.1-0.1,4.2-0.1L665.3,714.6z M666.4,713.3l-0.1-0.1
					c0.1,0,0.2-0.1,0.3-0.1L666.4,713.3z M661.2,707.2l-8.3-9.8c1.6,1,4.1,1.4,6.3,1.5l-0.1,0.2c0,0,0.8,0,1.9-0.1
					c1.1,0,1.9,0,1.9,0l-0.1-0.2c2.1-0.3,4.7-0.9,6.2-2L661.2,707.2z M689,701.4l-2.5-2.9c1.1-0.2,2.3-0.4,3.4-0.7
					c0.6,0.1,1.2,0.1,1.7,0.1L689,701.4z M688.6,690l-6.1-8c2.6,0.5,4.3,0.6,5.2,0.5l-0.2,0.4c0,0,1.6,0.5,6.2-0.8L688.6,690z
					 M708.9,675.5l-0.7-1.2c0.5-0.1,1.1-0.3,1.8-0.4L708.9,675.5z M725,688.2l-0.4-0.5c0.2,0.1,0.4,0.2,0.5,0.3L725,688.2z
					 M729.2,693.1l-3.1-3.7c1.4,0.1,3.5,0.1,5.6-0.1L729.2,693.1z M731,681.6l-1.3,1.4l-7.3-9.6c3,0.6,4.7,0.6,5.6,0.5l-1.2,1.7
					c0,0,3.8,0.2,7.3-0.3L731,681.6z M768,681.5l-8.4-8c3.7,1.6,11,0.6,11,0.6l-1-1.2c2.1-0.3,4.7-0.9,6.2-2L768,681.5z
					 M796.7,674.5c-0.3,0.1-0.6,0.2-0.8,0.2l-3.8-4.5c1.6,1,4.4,1.4,6.6,1.6L796.7,674.5z M852.6,659.4l-1.1-1.3
					c0.6,0.4,1.5,0.7,2.3,0.9C853.5,659.2,853.1,659.3,852.6,659.4z M1029,629.8c-0.1,0-0.3,0-0.4,0c0.2-0.1,0.5-0.3,0.7-0.4
					L1029,629.8z M1057.8,627.6c-1.4,0.1-2.7,0.2-4.1,0.3l-1.8-2.3c2.1-0.1,6.7-0.6,9-2.3L1057.8,627.6z M1129,624.8
					c-0.3,0-0.5,0-0.8,0c0.4-0.1,0.8-0.3,1.2-0.5L1129,624.8z M1159.8,625c-2.4,0-4.7-0.1-7.1-0.1l-1.3-1.3c2.4,1,6.4,1,8.8,0.8
					L1159.8,625z M1161.3,622.9l-3.9-4.6c2.1-0.1,6.7-0.6,9-2.3L1161.3,622.9z M1199,626.1c-2.5-0.1-5-0.2-7.6-0.3l-0.1-0.1
					c1.4-0.1,7.1-0.4,9.7-2.3L1199,626.1z M1236.8,628.4c-0.6,0-1.2-0.1-1.7-0.1c1.1-0.3,2-0.7,2.8-1.3L1236.8,628.4z M1274.4,632.5
					c-0.1,0-0.3,0-0.4-0.1c0.3-0.2,0.6-0.3,0.9-0.5L1274.4,632.5z M1296.8,635.8c-0.8-0.1-1.6-0.2-2.3-0.3l-3.5-4.1
					c1.9,1.2,5.2,1.5,7.6,1.6L1296.8,635.8z M1304.5,636.9c-0.3,0-0.6-0.1-0.9-0.1c0.6-0.3,1.2-0.5,1.7-0.9L1304.5,636.9z
					 M1324.2,638.5l-2.7-3.2c1.1,0.7,2.6,1.1,4.1,1.3L1324.2,638.5z M1328.4,632.7l-1-1.3c1.1-0.3,2.2-0.8,3-1.3L1328.4,632.7z
					 M1355.5,649c-1.2-0.6-2.5-1.3-4-1.9l-1.4-1.3c2,0.8,5.1,0.9,7.5,0.9L1355.5,649z M1360.7,656l-0.3-0.2c0-0.1,0-0.1,0-0.2
					c0.4-0.1,0.8-0.2,1.2-0.4L1360.7,656z M1359.5,644.6l-1.9-2.3c1.8-0.2,3.7-0.5,5.1-1.2L1359.5,644.6z M1382.7,625.7l-1.5-1.8
					c0.6,0.4,1.4,0.7,2.2,0.9L1382.7,625.7z M1388.2,643.7l-0.5-0.5c0.6-0.2,1.1-0.3,1.7-0.6L1388.2,643.7z M1387.7,631.6l-1.6-1.8
					c1.6-0.2,3.1-0.6,4.3-1.1L1387.7,631.6z M1387,619.8l-4.2-5.5c0.9,0,7.2-0.3,9.9-2.3L1387,619.8z M1412.4,627.9L1412.4,627.9
					C1412.4,627.9,1412.4,627.9,1412.4,627.9L1412.4,627.9z M1417.2,644l-0.2-0.2c0.7-0.1,1.5-0.3,2.2-0.5L1417.2,644z
					 M1418.2,633.4l-4.4-4.2c2.1,0.1,5.4,0.1,8.2-0.6c0.9-0.1,1.5-0.1,1.5-0.1l-0.2-0.2c0.2-0.1,0.5-0.2,0.7-0.3L1418.2,633.4z
					 M1417.8,621.9l-8.9-10.4c1.7,1.1,4.6,1.5,6.8,1.6l-1.7,2.3c0,0,7.3,0.4,10.9-1.4L1417.8,621.9z M1445.8,599.4l-2.3-2.7
					c0.9,0.6,2.1,0.9,3.4,1.2L1445.8,599.4z M1445.5,587.6l-4.2-5.5c4.8,1,6.4,0.3,6.4,0.3l-1.3-2.3c1-0.1,2.5-0.3,4.6-0.9
					L1445.5,587.6z M1474.8,626.4l-2.1-1.7c0.7-0.1,1.4-0.1,2-0.3c0.7,0.1,1.4,0.1,2,0.1L1474.8,626.4z M1474.4,614.5l-3.8-3.6
					c1.1,0,2.3-0.1,3.6-0.2c1.3,0.1,2.6,0,3.6,0L1474.4,614.5z M1473.9,602.7l-7.9-9.3c1.3,0.9,3.4,1.3,5.3,1.5l-0.2,0.3
					c0,0,1.1,0,2.5-0.2c1.5,0,2.5,0,2.5,0l-0.2-0.3c1.9-0.3,3.9-0.9,5.2-1.8L1473.9,602.7z M1504.2,623.7l-1.3-1
					c0.5,0.2,1.1,0.3,1.7,0.4L1504.2,623.7z M1510,628.4l-3.4-2.7c2.3-0.1,5.2-0.4,7.1-1.4L1510,628.4z M1509.3,616.8l-8.4-8.1
					c1.5,0.6,3.5,0.8,5.4,0.9l-0.3,0.4c0,0,2.8,0,5.6-0.6c0.2,0,0.3,0,0.3,0l0,0c1.6-0.3,3.1-0.9,4.2-1.6L1509.3,616.8z
					 M1538.2,637.8l-0.4-0.3c0.2,0.1,0.4,0.1,0.6,0.2L1538.2,637.8z M1538.1,625.8l-2.4-2.3c1.1,0.4,2.4,0.7,3.8,0.8L1538.1,625.8z
					 M1538,613.9l-5.8-6.8c2.6,1.7,8,1.7,9.7,1.6L1538,613.9z M1543.3,620.1l-0.4-0.4c0.4-0.1,0.8-0.3,1.2-0.5L1543.3,620.1z
					 M1542.1,608.3l-2.8-3.7c2.3-0.3,5.3-0.8,7.1-2.1L1542.1,608.3z M1569.6,633.5l-1.4-1.2c0.7,0.2,1.3,0.4,2.1,0.5L1569.6,633.5z
					 M1569.6,621.8l-3.5-3.4c1.5,0.6,3.4,0.8,5.3,0.9L1569.6,621.8z M1575.3,627.2l-0.5-0.5c0.6-0.2,1.1-0.4,1.5-0.6L1575.3,627.2z
					 M1574.1,615.5l-3.3-3.9c2.3-0.2,5.8-0.8,7.7-2.2L1574.1,615.5z"/>
				<linearGradient id="SVGID_9_" gradientUnits="userSpaceOnUse" x1="0" y1="721.4262" x2="1404.5966" y2="721.4262">
					<stop  offset="0" style="stop-color:#93BECA"/>
					<stop  offset="1" style="stop-color:#9BBDC8"/>
				</linearGradient>
				<path fill="url(#SVGID_9_)" d="M0,741.8c100.8,3.1,201.7,5.2,302.6,6.4c94.3,1.1,189.1,4.3,283.1-6
					c95.5-10.5,185.2-42.2,278.2-64.4c113.2-26.9,230.2-37.2,346.4-30.6c40.9,2.3,81,5.5,121.1,13.6c8.2,1.7,73.7,11,73.3,22.8
					c0,0-4.6,114-4.6,114H0C0,797.6,0,741.8,0,741.8z"/>
				<linearGradient id="SVGID_10_" gradientUnits="userSpaceOnUse" x1="865" y1="713.4835" x2="1400" y2="713.4835">
					<stop  offset="0" style="stop-color:#83B7C4"/>
					<stop  offset="0.6281" style="stop-color:#7FAABD"/>
					<stop  offset="1" style="stop-color:#7DA1B7"/>
				</linearGradient>
				<path fill="url(#SVGID_10_)" d="M1204.2,656.6c-108.3,7-339.2,70.9-339.2,70.9s388-43.1,535,44.4v-85.8
					C1400,686.1,1351.4,647.1,1204.2,656.6z"/>
				<linearGradient id="SVGID_11_" gradientUnits="userSpaceOnUse" x1="-12.6136" y1="904.1593" x2="1098.3864" y2="904.1593">
					<stop  offset="0" style="stop-color:#83B7C4"/>
					<stop  offset="0.6281" style="stop-color:#7FAABD"/>
					<stop  offset="1" style="stop-color:#7DA1B7"/>
				</linearGradient>
				<rect x="-12.6" y="778.2" fill="url(#SVGID_11_)" width="1111" height="251.8"/>
				<linearGradient id="SVGID_12_" gradientUnits="userSpaceOnUse" x1="-19.5299" y1="900.4599" x2="1428.7162" y2="900.4599">
					<stop  offset="0" style="stop-color:#9BBDC8"/>
					<stop  offset="1" style="stop-color:#93BECA"/>
				</linearGradient>
				<path fill="url(#SVGID_12_)" d="M-19.5,959.2l271.5-48c0,0,334.8,27.1,586.6-89.8c0,0,256.3-98.6,414.7-78.6
					c101.5,12.8,96.8,147.5,175.4,147.5v170.6H-19.5V959.2z"/>
				<g>
					<path fill="#0F2C42" d="M1279.5,913.5c-23,6.6-51.6-0.8-51.6-0.8l75.1-65.8c-21.3,8-55.2,2.5-55.2,2.5l62.2-63.9
						c-16.1,7.4-48.2,4.3-48.2,4.3l60.8-76.8c-13.4,9.2-44.4,8.6-44.4,8.6l52-73.2c-21,4.9-28,2.5-28,2.5l56.1-107.6l56.1,107.6
						c0,0-7,2.5-28-2.5l52,73.2c0,0-31,0.6-44.4-8.6l60.8,76.8c0,0-32.1,3.1-48.2-4.3l62.2,63.9c0,0-33.9,5.5-55.2-2.5l75.1,65.8
						c0,0-28.7,7.4-51.6,0.8l82.6,25.6c0,0-92.9,15.4-161.2,15.4c-68.4,0-161.2-15.4-161.2-15.4L1279.5,913.5z"/>
					<path fill="#0F2C42" d="M886.4,1054.6c-24.4,6.6-54.8-0.8-54.8-0.8l79.7-65.8c-22.6,8-58.6,2.5-58.6,2.5l66.1-63.9
						c-17.1,7.4-51.2,4.3-51.2,4.3l64.5-76.8c-14.3,9.2-47.1,8.6-47.1,8.6l55.2-73.2c-22.3,4.9-29.8,2.5-29.8,2.5l59.6-107.6
						l59.6,107.6c0,0-7.4,2.5-29.8-2.5l55.2,73.2c0,0-32.9,0.6-47.1-8.6l64.5,76.8c0,0-34.1,3.1-51.2-4.3l66.1,63.9
						c0,0-36,5.5-58.6-2.5l79.7,65.8c0,0-30.4,7.4-54.8,0.8l87.7,25.6c0,0-98.6,15.4-171.2,15.4s-171.2-15.4-171.2-15.4
						L886.4,1054.6z"/>
					<path fill="#1E3A50" d="M966,1019.9c-23,6.6-51.6-0.8-51.6-0.8l75.1-65.8c-21.3,8-55.2,2.5-55.2,2.5l62.2-63.9
						c-16.1,7.4-48.2,4.3-48.2,4.3l60.8-76.8c-13.4,9.2-44.4,8.6-44.4,8.6l52-73.2c-21,4.9-28,2.5-28,2.5l56.1-107.6l56.1,107.6
						c0,0-7,2.5-28-2.5l52,73.2c0,0-31,0.6-44.4-8.6l60.8,76.8c0,0-32.1,3.1-48.2-4.3l62.2,63.9c0,0-33.9,5.5-55.2-2.5l75.1,65.8
						c0,0-28.7,7.4-51.6,0.8l82.6,25.6c0,0-92.9,15.4-161.2,15.4c-68.4,0-161.2-15.4-161.2-15.4L966,1019.9z"/>
					<path fill="#0D2531" d="M804.7,1117.7c-23,6.6-51.6-0.8-51.6-0.8l75.1-65.8c-21.3,8-55.2,2.5-55.2,2.5l62.2-63.9
						c-16.1,7.4-48.2,4.3-48.2,4.3l60.8-76.8c-13.4,9.2-44.4,8.6-44.4,8.6l52-73.2c-21,4.9-28,2.5-28,2.5l56.1-107.6L939.4,855
						c0,0-7,2.5-28-2.5l52,73.2c0,0-31,0.6-44.4-8.6l60.8,76.8c0,0-32.1,3.1-48.2-4.3l62.2,63.9c0,0-33.9,5.5-55.2-2.5l75.1,65.8
						c0,0-28.7,7.4-51.6,0.8l82.6,25.6c0,0-92.9,15.4-161.2,15.4s-161.2-15.4-161.2-15.4L804.7,1117.7z"/>
					<path fill="#1E3A50" d="M1319.2,806.9c-7.6-1.2-15.3-3.3-20.5-6.9l60.8,76.8c0,0-32.1,3.1-48.2-4.3l62.2,63.9
						c0,0-33.9,5.5-55.2-2.5l75.1,65.8c0,0-28.7,7.4-51.6,0.8l82.6,25.6c0,0-92.9,15.4-161.2,15.4s-161.2-15.4-161.2-15.4l82.6-25.6
						c-23,6.6-51.6-0.8-51.6-0.8l75.1-65.8c-21.3,8-55.2,2.5-55.2,2.5l62.2-63.9c-16.1,7.4-48.2,4.3-48.2,4.3l60.8-76.8
						c-13.4,9.2-44.4,8.6-44.4,8.6l52-73.2c-21,4.9-28,2.5-28,2.5l56.1-107.6l56.1,107.6c0,0-7,2.5-28-2.5l52,73.2
						C1343.2,808.7,1331.4,808.9,1319.2,806.9"/>
					<path fill="#0F2C42" d="M1286.8,1095.3c-23,6.6-51.6-0.8-51.6-0.8l75.1-65.8c-21.3,8-55.2,2.5-55.2,2.5l62.2-63.9
						c-16.1,7.4-48.2,4.3-48.2,4.3l60.8-76.8c-13.4,9.2-44.4,8.6-44.4,8.6l52-73.2c-21,4.9-28,2.5-28,2.5l56.1-107.6l56.1,107.6
						c0,0-7,2.5-28-2.5l52,73.2c0,0-31,0.6-44.4-8.6l60.8,76.8c0,0-32.1,3.1-48.2-4.3l62.2,63.9c0,0-33.9,5.5-55.2-2.5l75.1,65.8
						c0,0-28.7,7.4-51.6,0.8l82.6,25.6c0,0-92.9,15.4-161.2,15.4c-68.4,0-161.2-15.4-161.2-15.4L1286.8,1095.3z"/>
					<path fill="#0D2531" d="M1251.2,1056.3c-15.1,4.3-33.9-0.5-33.9-0.5l49.3-43.2c-14,5.2-36.3,1.6-36.3,1.6l40.9-42
						c-10.6,4.8-31.7,2.8-31.7,2.8l39.9-50.5c-8.8,6.1-29.2,5.7-29.2,5.7l34.2-48.1c-13.8,3.2-18.4,1.6-18.4,1.6l36.8-70.7
						l36.8,70.7c0,0-4.6,1.6-18.4-1.6l34.2,48.1c0,0-20.3,0.4-29.2-5.7l39.9,50.5c0,0-21.1,2-31.7-2.8l40.9,42
						c0,0-22.3,3.6-36.3-1.6l49.3,43.2c0,0-18.8,4.9-33.9,0.5l54.3,16.8c0,0-61,10.1-105.9,10.1c-44.9,0-105.9-10.1-105.9-10.1
						L1251.2,1056.3z"/>
					<path fill="#0F2C42" d="M1059,1112.6c-30.1,6.6-67.7-0.8-67.7-0.8l98.3-65.8c-27.9,8-72.3,2.5-72.3,2.5l81.5-63.9
						c-21,7.4-63.1,4.3-63.1,4.3l79.6-76.8c-17.6,9.2-58.2,8.6-58.2,8.6l68.1-73.2c-27.6,4.9-36.7,2.5-36.7,2.5l73.5-107.6
						l73.5,107.6c0,0-9.2,2.5-36.7-2.5l68.1,73.2c0,0-40.6,0.6-58.2-8.6l79.6,76.8c0,0-42.1,3.1-63.1-4.3l81.5,63.9
						c0,0-44.4,5.5-72.3-2.5l98.3,65.8c0,0-37.5,7.4-67.7,0.8l108.2,25.6c0,0-121.7,15.4-211.2,15.4s-211.2-15.4-211.2-15.4
						L1059,1112.6z"/>
				</g>
				<g>
					<path fill="#0D2531" d="M-65.6,923.7c-23.8,6.8-53.5-0.9-53.5-0.9l77.7-68.1c-22.1,8.3-57.2,2.5-57.2,2.5l64.4-66.2
						c-16.6,7.6-49.9,4.5-49.9,4.5l62.9-79.6c-13.9,9.5-46,8.9-46,8.9l53.8-75.7c-21.8,5.1-29,2.5-29,2.5l58.1-111.4l58.1,111.4
						c0,0-7.3,2.5-29-2.5l53.8,75.7c0,0-32.1,0.6-46-8.9l62.9,79.6c0,0-33.3,3.2-49.9-4.5l64.4,66.2c0,0-35.1,5.7-57.2-2.5
						l77.7,68.1c0,0-29.7,7.7-53.5,0.9l85.5,26.5c0,0-96.2,15.9-167,15.9s-167-15.9-167-15.9L-65.6,923.7z"/>
					<path fill="#1E3A50" d="M-1.4,1006.5c-26.6,6.8-59.9-0.9-59.9-0.9l87-68.1c-24.7,8.3-64,2.5-64,2.5l72.1-66.2
						c-18.6,7.6-55.9,4.5-55.9,4.5l70.4-79.6c-15.6,9.5-51.5,8.9-51.5,8.9l60.3-75.7c-24.4,5.1-32.5,2.5-32.5,2.5l65-111.4l65,111.4
						c0,0-8.1,2.5-32.5-2.5l60.3,75.7c0,0-35.9,0.6-51.5-8.9l70.4,79.6c0,0-37.3,3.2-55.9-4.5l72.1,66.2c0,0-39.3,5.7-64-2.5
						l87,68.1c0,0-33.2,7.7-59.9,0.9l95.8,26.5c0,0-107.7,15.9-187,15.9s-187-15.9-187-15.9L-1.4,1006.5z"/>
					<path fill="#0F2C42" d="M149.4,1029.5c-23.8,6.8-53.5-0.9-53.5-0.9l77.7-68.1c-22.1,8.3-57.2,2.5-57.2,2.5l64.4-66.2
						c-16.6,7.6-49.9,4.5-49.9,4.5l62.9-79.6c-13.9,9.5-46,8.9-46,8.9l53.8-75.7c-21.8,5.1-29,2.5-29,2.5l58.1-111.4l58.1,111.4
						c0,0-7.3,2.5-29-2.5l53.8,75.7c0,0-32.1,0.6-46-8.9l62.9,79.6c0,0-33.3,3.2-49.9-4.5l64.4,66.2c0,0-35.1,5.7-57.2-2.5
						l77.7,68.1c0,0-29.7,7.7-53.5,0.9l85.5,26.5c0,0-96.2,15.9-167,15.9s-167-15.9-167-15.9L149.4,1029.5z"/>
					<path fill="#0D2531" d="M249.8,1022c-18.6,5.3-41.9-0.7-41.9-0.7l60.9-53.3c-17.3,6.5-44.8,2-44.8,2l50.5-51.8
						c-13,6-39.1,3.5-39.1,3.5l49.3-62.3c-10.9,7.5-36,7-36,7l42.2-59.3c-17.1,4-22.7,2-22.7,2l45.5-87.2l45.5,87.2
						c0,0-5.7,2-22.7-2l42.2,59.3c0,0-25.1,0.5-36-7l49.3,62.3c0,0-26.1,2.5-39.1-3.5l50.5,51.8c0,0-27.5,4.5-44.8-2l60.9,53.3
						c0,0-23.2,6-41.9,0.7l67,20.8c0,0-75.3,12.5-130.7,12.5s-130.7-12.5-130.7-12.5L249.8,1022z"/>
					<path fill="#0D2531" d="M94.8,1044.2c-15.6,4.5-35.1-0.6-35.1-0.6l51.1-44.7c-14.5,5.4-37.5,1.7-37.5,1.7l42.3-43.5
						c-10.9,5-32.8,2.9-32.8,2.9l41.3-52.3c-9.1,6.3-30.2,5.9-30.2,5.9l35.4-49.8c-14.3,3.3-19.1,1.7-19.1,1.7l38.1-73.2l38.1,73.2
						c0,0-4.8,1.7-19.1-1.7l35.4,49.8c0,0-21.1,0.4-30.2-5.9l41.3,52.3c0,0-21.9,2.1-32.8-2.9l42.3,43.5c0,0-23,3.8-37.5-1.7
						l51.1,44.7c0,0-19.5,5-35.1,0.6l56.2,17.4c0,0-63.2,10.5-109.7,10.5s-109.7-10.5-109.7-10.5L94.8,1044.2z"/>
				</g>
				<g>
					<g>
						<g>
							
								<linearGradient id="SVGID_13_" gradientUnits="userSpaceOnUse" x1="473.4196" y1="818.9772" x2="471.9196" y2="844.9772" gradientTransform="matrix(-1 0 0 1 1030.3029 0)">
								<stop  offset="0" style="stop-color:#2B5C72"/>
								<stop  offset="0.4329" style="stop-color:#3E6D83"/>
								<stop  offset="1" style="stop-color:#5D8CA2"/>
							</linearGradient>
							<path fill="url(#SVGID_13_)" d="M551.2,797.5l0.9-0.6c0.7-0.5,1-1.4,0.7-2.2l-2.6-7.1c0,0,2.9-2.2,3.2-2
								c0.4,0.3,1.7,1.2,2.5,1.7c0.8,0.5,3.9,3.8,3.9,3.8l0.9,6.4c0.1,0.9,0.3,1.7,0.6,2.5l0.3,0.7c0,0.1-0.1,0.3-0.2,0.3h-11.2
								v-1.6C550.2,798.6,550.5,797.9,551.2,797.5z"/>
							
								<linearGradient id="SVGID_14_" gradientUnits="userSpaceOnUse" x1="454.9402" y1="817.911" x2="453.4402" y2="843.911" gradientTransform="matrix(-1 0 0 1 1030.3029 0)">
								<stop  offset="0" style="stop-color:#2B5C72"/>
								<stop  offset="0.4329" style="stop-color:#3E6D83"/>
								<stop  offset="1" style="stop-color:#5D8CA2"/>
							</linearGradient>
							<path fill="url(#SVGID_14_)" d="M568.2,797.6c0.1-1.5,2.7-1.2,2.7-1.2l-0.9-3.9c0,0,0.2-2.5,0.3-3c0.1-0.5,2.5-1.8,3.3-2.2
								c0.8-0.4,5.4,0.5,5.4,0.5l1,3.5L579,801h-10.5C568.5,801,568.1,799.1,568.2,797.6z"/>
							
								<linearGradient id="SVGID_15_" gradientUnits="userSpaceOnUse" x1="436.6838" y1="780.8935" x2="518.2343" y2="780.8935" gradientTransform="matrix(-1 0 0 1 1030.3029 0)">
								<stop  offset="0" style="stop-color:#387590"/>
								<stop  offset="0.6077" style="stop-color:#4E819A"/>
								<stop  offset="1" style="stop-color:#5D8CA2"/>
							</linearGradient>
							<path fill="url(#SVGID_15_)" d="M512.8,772.6l3.7-2.2l3.7-3.8c1.4-1.5,3.2-2.5,5.2-3.1c1.8-0.5,4.1-0.9,6.7-1
								c5.5-0.1,12.2-0.9,16.4-1.7c1.6-0.3,2.6-0.1,3.4,0.2c1.8,0.8,3.8,1.3,5.8,1.1c6-0.5,16.3-1.3,19.5-0.7
								c4.5,0.9,14.8,5.9,14.8,17.4c0,11.5,1.8,22.1,1.8,22.1h-12.9c0,0-1.3-3.9,1.3-3.9c2.6,0-3.6-2.9-4.7-7.2c0,0-5.4,6.8-26.3-2
								l-3.2,9.1c-0.4,1-0.5,2-0.5,3.1v0.8h-11.1v-2c0-1.1,0.7-2.1,1.7-2.5l0.2-0.1c1.4-0.6,2.3-1.8,2.5-3.3l1.3-9.5
								c0,0-5.4-2.1-8.1-3.8c-1.1-0.7-2.3-1.1-3.6-1.1l-8.8,0.3c-2.5,0.1-4.9-0.5-7.2-1.5l-1.2-0.6c-0.5-0.2-0.8-0.7-0.9-1.3
								l-0.2-1.5C512,773.6,512.3,773,512.8,772.6z"/>
						</g>
						
							<linearGradient id="SVGID_16_" gradientUnits="userSpaceOnUse" x1="492.0889" y1="770.8821" x2="412.0889" y2="866.8821" gradientTransform="matrix(-1 0 0 1 1030.3029 0)">
							<stop  offset="0" style="stop-color:#4C7182"/>
							<stop  offset="0.6917" style="stop-color:#578296"/>
							<stop  offset="1" style="stop-color:#5D8CA2"/>
						</linearGradient>
						<path opacity="0.7" fill="url(#SVGID_16_)" d="M546,801l1.5,1.3c1.9,1.7,4,3.4,6.2,4.9l17.5,12.8l-8.2-9
							c-1.2-1.3-3.1-2.7-4.6-3.4l-2-1c-1.4-0.7-3.1-1.8-4.5-3l-3-2.6h11.2c0.1,0,0.5,0.2,0.7,0.4l1.1,1.2c1.2,1.3,2.5,2.7,4,4
							l10.8,10.2l0,0c2.2-1.9,4.9-2.4,7.6-2.3c0,0,0,0,0,0l-6.1-6.2c0,0-1.9,0.6-4.8-1.9c-2.9-2.4-6-5.6-6-5.6h10.5l13.8,11.5
							c-1.9-3.4-2.1-5.4-3.8-5.4c-2.6,0-8.4-6.1-8.4-6.1h12.9c0,0,17.6,17,38.5,35.3c20.9,18.3,19.7,26.3,16.8,27.7
							c-2,1-13.7-0.2-20.7-1.1c-2.3-0.3-3.4,0.5-3.7,1.8c-0.1,0.5-0.9,0.8-3,0.3c-5.7-1.3-13.9-2.6-19.5-2.7
							c-2.6-0.1-5.8-0.8-8.4-1.5c-2.9-0.8-6.7-2.5-10.7-4.9l-10.5-6l-7.8-3.6c-1.1-0.5-2.5-1.5-3.6-2.5l-2.5-2.4
							c-1-0.9-1.5-1.7-1.4-2.1l0.1-0.9c0.3-1.7,1.8-2.6,4.4-2.4l9.3,0.4c1.3,0.1,1.9-0.6,1.7-1.7c-0.5-2.8,1.1-6.1,1.1-6.1
							l-18.5-15.1c-2.9-2.3-6.1-4.3-8.5-5.2l-0.4-0.2c-1.8-0.7-4.2-2.2-6.2-4l-3.7-3.3H546z"/>
					</g>
					<g>
						<g>
							
								<linearGradient id="SVGID_17_" gradientUnits="userSpaceOnUse" x1="397.3944" y1="814.5911" x2="395.8944" y2="840.5911" gradientTransform="matrix(-1 0 0 1 1030.3029 0)">
								<stop  offset="0" style="stop-color:#2B5C72"/>
								<stop  offset="0.4329" style="stop-color:#3E6D83"/>
								<stop  offset="1" style="stop-color:#5D8CA2"/>
							</linearGradient>
							<path fill="url(#SVGID_17_)" d="M628.5,782.2l0.5-0.3c0.4-0.3,0.6-0.8,0.4-1.2l-1.5-4.1c0,0,1.6-1.3,1.8-1.1
								c0.2,0.2,1,0.7,1.4,1c0.5,0.3,2.2,2.1,2.2,2.1l0.5,3.6c0.1,0.5,0.2,1,0.4,1.4l0.1,0.4c0,0.1,0,0.2-0.1,0.2h-6.4v-0.9
								C627.9,782.9,628.1,782.5,628.5,782.2z"/>
							
								<linearGradient id="SVGID_18_" gradientUnits="userSpaceOnUse" x1="386.8882" y1="813.9849" x2="385.3882" y2="839.9849" gradientTransform="matrix(-1 0 0 1 1030.3029 0)">
								<stop  offset="0" style="stop-color:#2B5C72"/>
								<stop  offset="0.4329" style="stop-color:#3E6D83"/>
								<stop  offset="1" style="stop-color:#5D8CA2"/>
							</linearGradient>
							<path fill="url(#SVGID_18_)" d="M638.2,782.2c0.1-0.9,1.5-0.7,1.5-0.7l-0.5-2.2c0,0,0.1-1.4,0.2-1.7c0.1-0.3,1.4-1,1.9-1.2
								c0.5-0.2,3.1,0.3,3.1,0.3l0.6,2l-0.5,5.5h-6C638.4,784.2,638.1,783.1,638.2,782.2z"/>
							
								<linearGradient id="SVGID_19_" gradientUnits="userSpaceOnUse" x1="377.6721" y1="772.7744" x2="424.0367" y2="772.7744" gradientTransform="matrix(-1 0 0 1 1030.3029 0)">
								<stop  offset="0" style="stop-color:#387590"/>
								<stop  offset="0.6077" style="stop-color:#4E819A"/>
								<stop  offset="1" style="stop-color:#5D8CA2"/>
							</linearGradient>
							<path fill="url(#SVGID_19_)" d="M606.7,768.1l2.1-1.3l2.1-2.1c0.8-0.8,1.8-1.4,2.9-1.7c1-0.3,2.3-0.5,3.8-0.5
								c3.1-0.1,6.9-0.5,9.3-1c0.9-0.2,1.5-0.1,1.9,0.1c1,0.5,2.1,0.7,3.3,0.6c3.4-0.3,9.3-0.7,11.1-0.4c2.5,0.5,8.4,3.4,8.4,9.9
								s1,12.6,1,12.6h-7.3c0,0-0.7-2.2,0.8-2.2c1.5,0-2-1.6-2.6-4.1c0,0-3.1,3.9-15-1.1l-1.8,5.2c-0.2,0.6-0.3,1.2-0.3,1.8v0.5H620
								v-1.2c0-0.6,0.4-1.2,1-1.4l0.1-0.1c0.8-0.3,1.3-1,1.4-1.9l0.7-5.4c0,0-3.1-1.2-4.6-2.2c-0.6-0.4-1.3-0.6-2-0.6l-5,0.2
								c-1.4,0-2.8-0.3-4.1-0.9l-0.7-0.3c-0.3-0.1-0.5-0.4-0.5-0.7l-0.1-0.8C606.2,768.6,606.4,768.3,606.7,768.1z"/>
						</g>
						
							<linearGradient id="SVGID_20_" gradientUnits="userSpaceOnUse" x1="409.172" y1="767.0825" x2="363.6889" y2="821.6622" gradientTransform="matrix(-1 0 0 1 1030.3029 0)">
							<stop  offset="0" style="stop-color:#4C7182"/>
							<stop  offset="0.6917" style="stop-color:#578296"/>
							<stop  offset="1" style="stop-color:#5D8CA2"/>
						</linearGradient>
						<path opacity="0.7" fill="url(#SVGID_20_)" d="M625.6,784.2l0.9,0.7c1.1,1,2.3,1.9,3.5,2.8l9.9,7.3l-4.7-5.1
							c-0.7-0.7-1.7-1.5-2.6-2l-1.1-0.5c-0.8-0.4-1.8-1-2.5-1.7l-1.7-1.5h6.4c0.1,0,0.3,0.1,0.4,0.3l0.6,0.7
							c0.7,0.7,1.4,1.5,2.3,2.3l6.1,5.8l0,0c1.2-1.1,2.8-1.4,4.3-1.3c0,0,0,0,0,0l-3.5-3.5c0,0-1.1,0.3-2.7-1.1
							c-1.6-1.4-3.4-3.2-3.4-3.2h6l7.9,6.6c-1.1-1.9-1.2-3.1-2.1-3.1c-1.5,0-4.7-3.5-4.7-3.5h7.3c0,0,10,9.7,21.9,20.1
							s11.2,14.9,9.6,15.8c-1.1,0.6-7.8-0.1-11.8-0.6c-1.3-0.2-2,0.3-2.1,1c-0.1,0.3-0.5,0.4-1.7,0.2c-3.2-0.7-7.9-1.5-11.1-1.5
							c-1.5,0-3.3-0.4-4.8-0.9c-1.7-0.5-3.8-1.4-6.1-2.8l-6-3.4l-4.4-2c-0.6-0.3-1.4-0.8-2-1.4l-1.4-1.3c-0.5-0.5-0.9-0.9-0.8-1.2
							l0.1-0.5c0.2-1,1-1.5,2.5-1.4l5.3,0.2c0.8,0,1.1-0.3,0.9-1c-0.3-1.6,0.6-3.5,0.6-3.5l-10.5-8.6c-1.6-1.3-3.5-2.5-4.8-3
							l-0.2-0.1c-1-0.4-2.4-1.3-3.5-2.3l-2.1-1.9H625.6z"/>
					</g>
				</g>
				<linearGradient id="SVGID_21_" gradientUnits="userSpaceOnUse" x1="1044.5924" y1="62.6124" x2="1044.5924" y2="272.7358">
					<stop  offset="0" style="stop-color:#19304E"/>
					<stop  offset="0.2601" style="stop-color:#1A3351;stop-opacity:0.7219"/>
					<stop  offset="0.5118" style="stop-color:#1F3B58;stop-opacity:0.4527"/>
					<stop  offset="0.7593" style="stop-color:#264963;stop-opacity:0.188"/>
					<stop  offset="0.9351" style="stop-color:#2C5770;stop-opacity:0"/>
				</linearGradient>
				<path fill="url(#SVGID_21_)" d="M1216.7,239.5c-7.5-1.4-15.3-3-21.6-7.3c-6.8-4.6-11.2-12-17.3-17.5c-6.1-5.5-15.6-9.1-22.4-4.5
					c-0.9-18.3-25-30.7-40.4-20.9c1-9.4-10.7-16-19.9-13.7c-9.2,2.3-15.8,10-21.8,17.3c-12.9-18.4-33.5-32.6-56.6-24.8
					c-6.1,2-48.6,37-44,40.3c-13.9-10.1-33.8-11.2-48.7-2.6c-9.4,5.4-16.6,14.1-26.2,19.1c-7.9,4.2-17,5.6-25.9,7
					c-23.8,3.6-47.6,7.3-71.3,10.9l1.6,55.8h486.5l-5.6-46.4C1261,248,1238.8,243.7,1216.7,239.5z"/>
				<g>
					<linearGradient id="SVGID_22_" gradientUnits="userSpaceOnUse" x1="309.2249" y1="1.1149" x2="309.2249" y2="179.606">
						<stop  offset="0" style="stop-color:#19304E"/>
						<stop  offset="0.266" style="stop-color:#1B3351;stop-opacity:0.734"/>
						<stop  offset="0.548" style="stop-color:#1F3C59;stop-opacity:0.452"/>
						<stop  offset="0.8365" style="stop-color:#274B66;stop-opacity:0.1635"/>
						<stop  offset="1" style="stop-color:#2C5770;stop-opacity:0"/>
					</linearGradient>
					<path fill="url(#SVGID_22_)" d="M484.2,134.3c-6.5-1.7-14.3-0.4-18.1,5.1c-2.7-9.1-8.2-17.9-16.7-21.9
						c-8.6-4-20.4-1.7-24.9,6.6c-2-6.8-5.9-13.5-12.4-16.5c-6.4-3-15.5-0.6-17.9,6.1c1.1-9.3-2.9-19.4-10.7-24.6
						c-7.9-5.2-18.3-3.7-24.7,3.2c-2-4.9-7.5-8.1-12.8-7.4c-3.7,0.5-7.1,2.9-9,6.2c3.8-15.3-7.3-33.4-23.2-35.7
						c-17.4-2.5-34.6,14.9-32,32.3c-5.3-3.8-13.2-3.2-17.9,1.3s-5.6,12.4-2.1,17.9c-8.6-13.1-24.2-22.2-39.6-19.9
						c-15.4,2.4-28.4,18.5-24.4,33.6c-6.4-1.3-13.1-1-19.3,1c-3.4,1.1-3.5,6.8-5.5,9c-2.9,3.1-8.3,5.4-11.9,7.7
						c-3.2,2.1-9.3,4.2-12.8,5.8c-3.7,1.6-7.7,2.8-11.6,3.9c-11.7,3.4-23.4,6.7-35.1,10.1v45.5l410.1-6.6l5.2-48.1
						c-5.2-0.4-10.3-2.8-14.9-5.5C496.2,140,490.7,136,484.2,134.3z"/>
					<linearGradient id="SVGID_23_" gradientUnits="userSpaceOnUse" x1="518.9007" y1="1.1149" x2="518.9008" y2="179.606">
						<stop  offset="0" style="stop-color:#19304E"/>
						<stop  offset="0.266" style="stop-color:#1B3351;stop-opacity:0.734"/>
						<stop  offset="0.548" style="stop-color:#1F3C59;stop-opacity:0.452"/>
						<stop  offset="0.8365" style="stop-color:#274B66;stop-opacity:0.1635"/>
						<stop  offset="1" style="stop-color:#2C5770;stop-opacity:0"/>
					</linearGradient>
					<path fill="url(#SVGID_23_)" d="M520.9,148.8l-4,0.1C518.2,149,519.6,149,520.9,148.8z"/>
				</g>
				<g opacity="0.7">
					<linearGradient id="SVGID_24_" gradientUnits="userSpaceOnUse" x1="655.9423" y1="180.9671" x2="825.7242" y2="292.097">
						<stop  offset="0" style="stop-color:#A8DAC9"/>
						<stop  offset="0.5388" style="stop-color:#A1DAD9;stop-opacity:0.3926"/>
						<stop  offset="0.887" style="stop-color:#9FD9DE;stop-opacity:0"/>
					</linearGradient>
					<polygon fill="url(#SVGID_24_)" points="710.4,562.2 528.3,562.2 907.5,0 1089.6,0 					"/>
					<linearGradient id="SVGID_26_" gradientUnits="userSpaceOnUse" x1="796.627" y1="294.7472" x2="898.9692" y2="361.7349">
						<stop  offset="0" style="stop-color:#A8DAC9"/>
						<stop  offset="0.5388" style="stop-color:#A1DAD9;stop-opacity:0.3926"/>
						<stop  offset="0.887" style="stop-color:#9FD9DE;stop-opacity:0"/>
					</linearGradient>
					<polygon fill="url(#SVGID_26_)" points="700.6,710.2 598.2,710.2 1077.1,0 1179.6,0 					"/>
					<linearGradient id="SVGID_27_" gradientUnits="userSpaceOnUse" x1="1286.6946" y1="196.882" x2="1409.6466" y2="277.3597">
						<stop  offset="0" style="stop-color:#A8DAC9"/>
						<stop  offset="0.5388" style="stop-color:#A1DAD9;stop-opacity:0.3926"/>
						<stop  offset="0.887" style="stop-color:#9FD9DE;stop-opacity:0"/>
					</linearGradient>
					<polygon fill="url(#SVGID_27_)" points="1282,495.5 1179.6,495.5 1513,43.4 1615.4,43.4 					"/>
				</g>
			</g>
		</g>
		<g>
			<g>
				<g>
					<circle fill="#FFFFFF" cx="108.7" cy="98.4" r="4.8"/>
					<circle fill="#FFFFFF" cx="477.1" cy="283.5" r="4.8"/>
					<circle fill="#FFFFFF" cx="397.6" cy="61.5" r="5.8"/>
					<circle fill="#FFFFFF" cx="312.8" cy="170.5" r="3.3"/>
					<circle fill="#FFFFFF" cx="108.7" cy="283.5" r="3.3"/>
					<circle fill="#FFFFFF" cx="540.3" cy="124" r="3.3"/>
				</g>
				<g>
					<circle fill="#FFFFFF" cx="38.3" cy="395" r="4.8"/>
					<circle fill="#FFFFFF" cx="406.7" cy="580.1" r="4.8"/>
					<circle fill="#FFFFFF" cx="327.1" cy="358.2" r="5.8"/>
					<circle fill="#FFFFFF" cx="242.4" cy="467.1" r="3.3"/>
					<circle fill="#FFFFFF" cx="38.3" cy="580.1" r="3.3"/>
					<circle fill="#FFFFFF" cx="469.9" cy="420.7" r="3.3"/>
				</g>
				<g>
					<circle fill="#FFFFFF" cx="797.9" cy="66" r="4.8"/>
					<circle fill="#FFFFFF" cx="1166.3" cy="251.1" r="4.8"/>
					<circle fill="#FFFFFF" cx="1086.7" cy="29.2" r="5.8"/>
					<circle fill="#FFFFFF" cx="1002" cy="138.1" r="3.3"/>
					<circle fill="#FFFFFF" cx="797.9" cy="251.1" r="3.3"/>
					<circle fill="#FFFFFF" cx="1229.5" cy="91.7" r="3.3"/>
				</g>
				<g>
					<circle fill="#FFFFFF" cx="727.5" cy="362.7" r="4.8"/>
					<circle fill="#FFFFFF" cx="1095.9" cy="547.8" r="4.8"/>
					<circle fill="#FFFFFF" cx="1016.3" cy="325.8" r="5.8"/>
					<circle fill="#FFFFFF" cx="931.5" cy="434.8" r="3.3"/>
					<circle fill="#FFFFFF" cx="727.5" cy="547.8" r="3.3"/>
					<circle fill="#FFFFFF" cx="1159" cy="388.3" r="3.3"/>
				</g>
				<g>
					<circle fill="#FFFFFF" cx="240.9" cy="633.6" r="4.8"/>
					<circle fill="#FFFFFF" cx="752.9" cy="754.5" r="4.8"/>
					<circle fill="#FFFFFF" cx="529.7" cy="596.8" r="5.8"/>
					<circle fill="#FFFFFF" cx="445" cy="705.8" r="3.3"/>
					<circle fill="#FFFFFF" cx="240.9" cy="818.8" r="3.3"/>
					<circle fill="#FFFFFF" cx="672.5" cy="659.3" r="3.3"/>
				</g>
				<g>
					<circle fill="#FFFFFF" cx="170.4" cy="930.3" r="4.8"/>
					<circle fill="#FFFFFF" cx="459.2" cy="893.5" r="5.8"/>
					<circle fill="#FFFFFF" cx="602" cy="955.9" r="3.3"/>
				</g>
				<g>
					<circle fill="#FFFFFF" cx="930.1" cy="601.3" r="4.8"/>
					<circle fill="#FFFFFF" cx="1298.4" cy="786.4" r="4.8"/>
					<circle fill="#FFFFFF" cx="1218.9" cy="564.5" r="5.8"/>
					<circle fill="#FFFFFF" cx="1134.1" cy="673.4" r="3.3"/>
					<circle fill="#FFFFFF" cx="930.1" cy="786.4" r="3.3"/>
					<circle fill="#FFFFFF" cx="1361.6" cy="626.9" r="3.3"/>
				</g>
				<g>
					<circle fill="#FFFFFF" cx="859.6" cy="898" r="4.8"/>
					<circle fill="#FFFFFF" cx="1148.4" cy="861.1" r="5.8"/>
					<circle fill="#FFFFFF" cx="1063.7" cy="970.1" r="3.3"/>
					<circle fill="#FFFFFF" cx="1291.2" cy="923.6" r="3.3"/>
				</g>
				<g>
					<circle fill="#FFFFFF" cx="1118.9" cy="205.7" r="4.8"/>
					<circle fill="#FFFFFF" cx="1358.5" cy="69.2" r="5.8"/>
					<circle fill="#FFFFFF" cx="1323" cy="277.8" r="3.3"/>
					<circle fill="#FFFFFF" cx="1118.9" cy="390.8" r="3.3"/>
				</g>
				<g>
					<circle fill="#FFFFFF" cx="1388.6" cy="435" r="4.8"/>
					<circle fill="#FFFFFF" cx="1388.6" cy="620.2" r="3.3"/>
				</g>
			</g>
			<g>
				<g>
					<circle fill="#FFFFFF" cx="1360.4" cy="720" r="4.8"/>
					<circle fill="#FFFFFF" cx="1297.2" cy="879.4" r="3.3"/>
				</g>
				<g>
					<circle fill="#FFFFFF" cx="628.7" cy="944.3" r="4.8"/>
					<circle fill="#FFFFFF" cx="997.1" cy="944.3" r="3.3"/>
				</g>
				<g>
					<circle fill="#FFFFFF" cx="883.2" cy="825.3" r="4.8"/>
					<circle fill="#FFFFFF" cx="514.8" cy="640.2" r="4.8"/>
					<circle fill="#FFFFFF" cx="738.1" cy="797.9" r="5.8"/>
					<circle fill="#FFFFFF" cx="679.1" cy="753.2" r="3.3"/>
					<circle fill="#FFFFFF" cx="883.2" cy="640.2" r="3.3"/>
					<circle fill="#FFFFFF" cx="451.6" cy="799.7" r="3.3"/>
				</g>
				<g>
					<circle fill="#FFFFFF" cx="100" cy="960.4" r="4.8"/>
					<circle fill="#FFFFFF" cx="468.4" cy="960.4" r="3.3"/>
				</g>
				<g>
					<circle fill="#FFFFFF" cx="538.8" cy="848.8" r="4.8"/>
					<circle fill="#FFFFFF" cx="170.4" cy="663.7" r="4.8"/>
					<circle fill="#FFFFFF" cx="250" cy="885.6" r="5.8"/>
					<circle fill="#FFFFFF" cx="334.8" cy="776.7" r="3.3"/>
					<circle fill="#FFFFFF" cx="538.8" cy="663.7" r="3.3"/>
					<circle fill="#FFFFFF" cx="107.3" cy="823.2" r="3.3"/>
				</g>
			</g>
		</g>
	</g>
</g>
</svg>
